<?xml version="1.0" encoding="UTF-8"?>
<svg xmlns="http://www.w3.org/2000/svg" viewBox="0 0 900 1100">
<defs>
  <linearGradient id="bg" x1="0" y1="0" x2="1" y2="1"><stop offset="0" stop-color="#080808"/><stop offset=".55" stop-color="#2b0507"/><stop offset="1" stop-color="#080808"/></linearGradient>
  <linearGradient id="red" x1="0" y1="0" x2="1" y2="0"><stop stop-color="#e50914"/><stop offset="1" stop-color="#ff3340"/></linearGradient>
</defs>
<rect width="900" height="1100" fill="url(#bg)"/>
<circle cx="720" cy="190" r="190" fill="#e50914" opacity=".08"/>
<circle cx="180" cy="900" r="260" fill="#e50914" opacity=".06"/>
<rect x="60" y="60" width="780" height="980" rx="36" fill="none" stroke="#e50914" stroke-opacity=".35" stroke-width="3"/>
<text x="450" y="170" text-anchor="middle" fill="#fff" font-family="Arial,sans-serif" font-size="30" font-weight="800" letter-spacing="4">MATERIAL DIGITAL</text>
<text x="450" y="300" text-anchor="middle" fill="#fff" font-family="Arial,sans-serif" font-size="72" font-weight="900">20 SINAIS</text>
<text x="450" y="380" text-anchor="middle" fill="url(#red)" font-family="Arial,sans-serif" font-size="58" font-weight="900">QUE SUA PARCEIRA</text>
<text x="450" y="450" text-anchor="middle" fill="#fff" font-family="Arial,sans-serif" font-size="56" font-weight="900">PODE ESTAR</text>
<text x="450" y="525" text-anchor="middle" fill="url(#red)" font-family="Arial,sans-serif" font-size="70" font-weight="900">TE TRAINDO</text>
<g transform="translate(450 720)">
<circle cx="0" cy="-80" r="64" fill="#181818" stroke="#e50914" stroke-width="5"/>
<path d="M-125 150 Q-105 0 0 -5 Q105 0 125 150Z" fill="#181818" stroke="#e50914" stroke-width="5"/>
<path d="M-35 -95 Q0 -125 35 -95" fill="none" stroke="#fff" stroke-width="10" stroke-linecap="round"/>
<circle cx="-23" cy="-82" r="7" fill="#fff"/><circle cx="23" cy="-82" r="7" fill="#fff"/>
<path d="M-28 -48 Q0 -30 28 -48" fill="none" stroke="#e50914" stroke-width="7" stroke-linecap="round"/>
</g>
<text x="450" y="1000" text-anchor="middle" fill="#bbb" font-family="Arial,sans-serif" font-size="25">Observe. Reflita. Converse.</text>
</svg>